<svg xmlns="http://www.w3.org/2000/svg" width="327.804" height="327.804" viewBox="0 0 327.804 327.804">
  <g id="Grupo_734" data-name="Grupo 734" transform="translate(-4368.098 -1126.198)">
    <g id="Grupo_732" data-name="Grupo 732">
      <rect id="Rectángulo_518" data-name="Rectángulo 518" width="327.804" height="327.804" transform="translate(4368.098 1126.198)" fill="#fff" opacity="0"/>
    </g>
    <g id="Grupo_733" data-name="Grupo 733">
      <path id="Trazado_1647" data-name="Trazado 1647" d="M4535.9,1286.629a56.521,56.521,0,1,0-39.953-16.554A54.68,54.68,0,0,0,4535.9,1286.629Zm-30.23-86.739a42.735,42.735,0,1,1-12.53,30.23A40.842,40.842,0,0,1,4505.673,1199.89Z" fill="#c2c4c5"/>
      <path id="Trazado_1648" data-name="Trazado 1648" d="M4634.777,1354.02a139.411,139.411,0,0,0-1.9-14.824,116.831,116.831,0,0,0-3.647-14.905,73.636,73.636,0,0,0-6.128-13.9,52.4,52.4,0,0,0-9.238-12.041,40.74,40.74,0,0,0-13.273-8.339,45.868,45.868,0,0,0-16.943-3.066c-2.4,0-4.711.982-9.184,3.9-2.753,1.8-5.973,3.871-9.567,6.168a54.83,54.83,0,0,1-12.38,5.454,48.069,48.069,0,0,1-30.282,0,54.7,54.7,0,0,1-12.37-5.452c-3.56-2.275-6.782-4.352-9.576-6.172-4.47-2.912-6.786-3.9-9.181-3.9a45.813,45.813,0,0,0-16.942,3.07,40.706,40.706,0,0,0-13.274,8.339,52.4,52.4,0,0,0-9.236,12.039,73.788,73.788,0,0,0-6.127,13.9,117.055,117.055,0,0,0-3.644,14.9,138.673,138.673,0,0,0-1.9,14.829c-.311,4.48-.469,9.143-.469,13.854,0,12.247,3.893,22.161,11.57,29.473,7.582,7.216,17.613,10.874,29.815,10.874h112.967c12.2,0,22.229-3.658,29.813-10.874,7.679-7.306,11.572-17.224,11.572-29.475C4635.25,1363.15,4635.091,1358.487,4634.777,1354.02Zm-20.577,33.371c-5.01,4.769-11.661,7.087-20.335,7.087H4480.9c-8.676,0-15.327-2.318-20.335-7.085-4.914-4.677-7.3-11.062-7.3-19.514,0-4.4.145-8.736.435-12.9a124.6,124.6,0,0,1,1.718-13.352,103.091,103.091,0,0,1,3.206-13.139,59.974,59.974,0,0,1,4.986-11.3,38.852,38.852,0,0,1,6.79-8.9,27.012,27.012,0,0,1,8.829-5.489,31.617,31.617,0,0,1,10.828-2.089c.481.256,1.339.744,2.728,1.65,2.826,1.842,6.084,3.943,9.685,6.243a68.1,68.1,0,0,0,15.538,6.944,61.81,61.81,0,0,0,38.74,0,68.191,68.191,0,0,0,15.547-6.948c3.686-2.356,6.852-4.4,9.679-6.24,1.389-.9,2.246-1.394,2.727-1.65a31.628,31.628,0,0,1,10.831,2.089,27.05,27.05,0,0,1,8.828,5.489,38.743,38.743,0,0,1,6.789,8.9,59.825,59.825,0,0,1,4.989,11.3,103.138,103.138,0,0,1,3.208,13.14,126.327,126.327,0,0,1,1.718,13.354v0c.292,4.151.438,8.49.44,12.9C4621.5,1376.333,4619.114,1382.716,4614.2,1387.391Z" fill="#c2c4c5"/>
    </g>
  </g>
</svg>
