<svg xmlns="http://www.w3.org/2000/svg" width="327.804" height="327.804" viewBox="0 0 327.804 327.804">
  <g id="Grupo_722" data-name="Grupo 722" transform="translate(-4368.098 -1560.2)">
    <rect id="Rectángulo_515" data-name="Rectángulo 515" width="327.804" height="327.804" transform="translate(4368.098 1560.2)" fill="#fff" opacity="0"/>
    <g id="Grupo_721" data-name="Grupo 721">
      <path id="Trazado_1639" data-name="Trazado 1639" d="M4569.295,1692.618a5.5,5.5,0,0,0-5.5,5.495v103.843a5.495,5.495,0,1,0,10.989,0V1698.113A5.5,5.5,0,0,0,4569.295,1692.618Z" fill="#c2c4c5"/>
      <path id="Trazado_1640" data-name="Trazado 1640" d="M4504.461,1692.618a5.494,5.494,0,0,0-5.494,5.495v103.843a5.494,5.494,0,1,0,10.988,0V1698.113A5.494,5.494,0,0,0,4504.461,1692.618Z" fill="#c2c4c5"/>
      <path id="Trazado_1641" data-name="Trazado 1641" d="M4457.209,1677.464v135.37a30.313,30.313,0,0,0,8.059,20.906,27.059,27.059,0,0,0,19.632,8.489h103.955a27.047,27.047,0,0,0,19.632-8.489,30.313,30.313,0,0,0,8.059-20.906v-135.37a20.989,20.989,0,0,0-5.385-41.275h-28.13v-6.868a21.581,21.581,0,0,0-21.759-21.7h-48.788a21.581,21.581,0,0,0-21.759,21.7v6.868h-28.131a20.989,20.989,0,0,0-5.385,41.275Zm131.646,153.776H4484.9c-9.394,0-16.7-8.07-16.7-18.406V1677.947h137.359v134.887C4605.557,1823.17,4598.25,1831.24,4588.855,1831.24Zm-87.141-201.919a10.585,10.585,0,0,1,10.77-10.714h48.788a10.587,10.587,0,0,1,10.77,10.714v6.868h-70.328Zm-39.12,17.857h148.567a9.89,9.89,0,0,1,0,19.78H4462.594a9.89,9.89,0,1,1,0-19.78Z" fill="#c2c4c5"/>
      <path id="Trazado_1642" data-name="Trazado 1642" d="M4536.878,1692.618a5.5,5.5,0,0,0-5.5,5.495v103.843a5.495,5.495,0,1,0,10.989,0V1698.113A5.494,5.494,0,0,0,4536.878,1692.618Z" fill="#c2c4c5"/>
    </g>
  </g>
</svg>
