<svg xmlns="http://www.w3.org/2000/svg" width="327.804" height="327.804" viewBox="0 0 327.804 327.804">
  <g id="Grupo_731" data-name="Grupo 731" transform="translate(-3500.826 -1560.2)">
    <rect id="Rectángulo_517" data-name="Rectángulo 517" width="327.804" height="327.804" transform="translate(3500.826 1560.2)" fill="#fff" opacity="0"/>
    <g id="Grupo_730" data-name="Grupo 730">
      <g id="loop">
        <g id="Grupo_729" data-name="Grupo 729">
          <path id="Trazado_1645" data-name="Trazado 1645" d="M3614.307,1634.575l-42.56,42.538v-41.335H3542.42v87.972H3630.4v-29.327h-34.465l39.106-39.107c24.847-24.868,68.25-24.868,93.134,0l20.734-20.741C3712.968,1598.607,3650.246,1598.658,3614.307,1634.575Z" fill="#c2c4c5"/>
          <path id="Trazado_1646" data-name="Trazado 1646" d="M3689.052,1725.179v29.327h34.481l-39.122,39.151c-24.846,24.861-68.25,24.861-93.118,0l-20.749,20.675a95.138,95.138,0,0,0,134.609,0l42.552-42.524v41.329h29.327v-87.958Z" fill="#c2c4c5"/>
        </g>
      </g>
    </g>
  </g>
</svg>
