<svg xmlns="http://www.w3.org/2000/svg" width="327.804" height="327.804" viewBox="0 0 327.804 327.804">
  <g id="Grupo_708" data-name="Grupo 708" transform="translate(-1435.813 -1560.2)">
    <rect id="Rectángulo_507" data-name="Rectángulo 507" width="327.804" height="327.804" transform="translate(1435.813 1560.2)" fill="#fff" opacity="0"/>
    <g id="Grupo_707" data-name="Grupo 707">
      <g id="_4" data-name="4">
        <g id="Grupo_706" data-name="Grupo 706">
          <path id="Trazado_1635" data-name="Trazado 1635" d="M1729.507,1842.007l-68.316-67.224a108.055,108.055,0,0,0,28.882-73.428c-.009-60.508-49.848-109.553-111.332-109.553s-111.324,49.045-111.324,109.553,49.839,109.554,111.324,109.554a111.956,111.956,0,0,0,70.069-24.465l68.581,67.489a8.657,8.657,0,0,0,12.108,0A8.341,8.341,0,0,0,1729.507,1842.007Zm-150.766-47.953c-52.023,0-94.195-41.5-94.195-92.7s42.172-92.7,94.195-92.7,94.2,41.5,94.2,92.7S1630.764,1794.054,1578.741,1794.054Z" fill="#c2c4c5"/>
        </g>
      </g>
    </g>
  </g>
</svg>
