<svg xmlns="http://www.w3.org/2000/svg" width="327.804" height="327.804" viewBox="0 0 327.804 327.804">
  <g id="Grupo_714" data-name="Grupo 714" transform="translate(-2621.062 -1560.2)">
    <rect id="Rectángulo_509" data-name="Rectángulo 509" width="327.804" height="327.804" transform="translate(2621.062 1560.2)" fill="#fff" opacity="0"/>
    <g id="Grupo_713" data-name="Grupo 713">
      <g id="Grupo_712" data-name="Grupo 712">
        <path id="Trazado_1637" data-name="Trazado 1637" d="M2910.257,1633.3l-26.681-26.686a14.15,14.15,0,0,0-20.007,0l-181.717,181.717c-.047.047-.061.113-.1.16a4.547,4.547,0,0,0-.8,1.208,3.336,3.336,0,0,0-.151.316c-.024.056-.061.1-.08.16l-20.008,60.045a4.717,4.717,0,0,0,5.948,5.948l60.027-20.007c.056,0,.1-.057.16-.081a3.163,3.163,0,0,0,.316-.15,4.544,4.544,0,0,0,1.207-.8c.048-.043.114-.057.161-.1l181.73-181.716A14.15,14.15,0,0,0,2910.257,1633.3Zm-237.621,210.94,14.622-43.84,29.242,29.242Zm52.575-19.22-33.355-33.355,148.366-148.361,13.343,13.343,6.665,6.669,13.343,13.338Zm178.377-178.382-23.346,23.352-16.664-16.668-16.691-16.687,23.351-23.347a4.717,4.717,0,0,1,6.669,0l26.676,26.681A4.716,4.716,0,0,1,2903.588,1646.639Z" fill="#c2c4c5"/>
      </g>
    </g>
  </g>
</svg>
