<svg xmlns="http://www.w3.org/2000/svg" width="327.804" height="327.804" viewBox="0 0 327.804 327.804">
  <g id="Grupo_728" data-name="Grupo 728" transform="translate(-3895.909 -1560.2)">
    <rect id="Rectángulo_516" data-name="Rectángulo 516" width="327.804" height="327.804" transform="translate(3895.909 1560.2)" fill="#fff" opacity="0"/>
    <g id="Grupo_727" data-name="Grupo 727">
      <g id="Grupo_724" data-name="Grupo 724">
        <g id="Grupo_723" data-name="Grupo 723">
          <path id="Trazado_1643" data-name="Trazado 1643" d="M4135.222,1607.618H3984.4a41.944,41.944,0,0,0-41.895,41.895v150.821a41.945,41.945,0,0,0,41.895,41.9h150.821a41.947,41.947,0,0,0,41.9-41.9V1649.513A41.945,41.945,0,0,0,4135.222,1607.618Zm25.137,192.716a25.137,25.137,0,0,1-25.137,25.137H3984.4a25.137,25.137,0,0,1-25.137-25.137V1649.513a25.137,25.137,0,0,1,25.137-25.137h150.821a25.137,25.137,0,0,1,25.137,25.137Z" fill="#c2c4c5"/>
        </g>
      </g>
      <g id="Grupo_726" data-name="Grupo 726">
        <g id="Grupo_725" data-name="Grupo 725">
          <path id="Trazado_1644" data-name="Trazado 1644" d="M4101.707,1716.545h-33.516v-33.516a8.38,8.38,0,1,0-16.759,0v33.516h-33.515a8.378,8.378,0,1,0,0,16.757h33.516v33.516a8.379,8.379,0,1,0,16.758,0V1733.3h33.516a8.378,8.378,0,1,0,0-16.757Z" fill="#c2c4c5"/>
        </g>
      </g>
    </g>
  </g>
</svg>
