<svg xmlns="http://www.w3.org/2000/svg" width="177.872" height="176.986" viewBox="0 0 177.872 176.986">
  <path id="Trazado_1627" data-name="Trazado 1627" d="M2149.3,2869.47v-36.282A41.543,41.543,0,0,0,2107.7,2791.6h-2.655v-11.5a21.909,21.909,0,0,0-22.123-22.123H2038.68c-11.5,0-21.238,9.734-21.238,22.123v11.5h-3.54a41.543,41.543,0,0,0-41.592,41.592v24.778h0v36.282c0,22.123,18.583,40.707,41.592,40.707h94.688a41.544,41.544,0,0,0,41.592-41.592V2869.47Zm-121.235-90.263a11.714,11.714,0,0,1,11.5-11.5h44.246a11.713,11.713,0,0,1,11.5,11.5v11.5h-68.139C2027.176,2788.056,2028.061,2784.517,2028.061,2779.207Zm110.616,109.731a35.5,35.5,0,0,1-35.4,35.4h-84.954a35.5,35.5,0,0,1-35.4-35.4V2869.47h0V2838.5a35.5,35.5,0,0,1,35.4-35.4h84.068a35.5,35.5,0,0,1,35.4,35.4v19.468h0Z" transform="translate(-1972.31 -2757.969)" fill="#ffd600"/>
</svg>
