<svg xmlns="http://www.w3.org/2000/svg" width="176.102" height="166.367" viewBox="0 0 176.102 166.367">
  <path id="Trazado_1626" data-name="Trazado 1626" d="M2117.937,3546.919h-6.194V3477.01c0-22.123-18.583-40.707-40.707-40.707h-73.449c-22.124,0-40.707,18.583-40.707,40.707v69.909h-5.31a5.31,5.31,0,0,0,0,10.619h61.945l-36.282,36.282a5.383,5.383,0,0,0,0,7.079,4.424,4.424,0,0,0,7.079,0l43.362-43.362h14.159l43.362,43.362a6.707,6.707,0,0,0,3.539,1.77,4.6,4.6,0,0,0,3.54-1.77,5.383,5.383,0,0,0,0-7.079l-36.281-36.282h61.06a5.71,5.71,0,0,0,5.31-5.31C2122.362,3549.574,2121.476,3546.919,2117.937,3546.919Zm-150.438,0V3477.01a29.84,29.84,0,0,1,30.088-30.088h73.449a29.84,29.84,0,0,1,30.087,30.088v69.909Z" transform="translate(-1946.26 -3436.303)" fill="#ffd600"/>
</svg>
