<svg xmlns="http://www.w3.org/2000/svg" width="166.367" height="176.986" viewBox="0 0 166.367 176.986">
  <path id="Trazado_1631" data-name="Trazado 1631" d="M1829.685,3205.936v-61.945c0-22.123-17.7-39.822-40.707-39.822H1715.53a40.6,40.6,0,0,0-40.707,40.707v95.573c0,22.123,18.583,40.707,40.707,40.707h84.953c22.124,0,40.707-18.583,40.707-40.707v-5.31C1841.19,3223.634,1836.765,3213.016,1829.685,3205.936Zm-121.235,28.317v34.512c-13.274-3.54-23.008-15.043-23.008-29.2v-94.687a29.839,29.839,0,0,1,30.088-30.087h73.449a29.839,29.839,0,0,1,30.088,30.087v53.981a41.131,41.131,0,0,0-18.584-4.425h-51.326C1727.033,3193.547,1708.45,3212.13,1708.45,3234.254Zm122.12,5.31a29.84,29.84,0,0,1-30.088,30.088h-81.413v-35.4a29.839,29.839,0,0,1,30.087-30.087h51.326a29.839,29.839,0,0,1,30.088,30.087v5.31Z" transform="translate(-1674.823 -3104.169)" fill="#ffd600"/>
</svg>
