<svg id="Grupo_700" data-name="Grupo 700" xmlns="http://www.w3.org/2000/svg" width="176.986" height="176.986" viewBox="0 0 176.986 176.986">
  <path id="Trazado_1622" data-name="Trazado 1622" d="M2420.431,2748.2h-93.8c-23.008,0-41.591,15.929-41.591,38.937s18.583,38.938,41.591,38.938h93.8c23.008,0,41.592-15.929,41.592-38.937S2443.439,2748.2,2420.431,2748.2Zm-.885,66.37h-92.918c-16.813,0-30.972-10.619-30.972-27.433s14.159-28.317,30.972-28.317h92.918c16.814,0,31.858,11.5,31.858,28.317S2436.36,2814.57,2419.546,2814.57Z" transform="translate(-2285.037 -2748.2)" fill="#ffd600"/>
  <path id="Trazado_1623" data-name="Trazado 1623" d="M2420.431,2894.078h-93.8c-23.008,0-41.591,15.929-41.591,38.938s18.583,38.937,41.591,38.937h93.8c23.008,0,41.592-15.929,41.592-38.937S2443.439,2894.078,2420.431,2894.078Zm-.885,67.255h-92.918c-16.813,0-30.972-10.619-30.972-27.433s14.159-28.317,30.972-28.317h92.918c16.814,0,31.858,11.5,31.858,28.317S2436.36,2961.333,2419.546,2961.333Z" transform="translate(-2285.037 -2794.966)" fill="#ffd600"/>
</svg>
