<svg xmlns="http://www.w3.org/2000/svg" width="176.986" height="178.756" viewBox="0 0 176.986 178.756">
  <path id="Trazado_1628" data-name="Trazado 1628" d="M2480.74,3534.5c-3.54-3.54-5.31-6.194-6.194-11.5a58.4,58.4,0,0,0-.885-12.389,67.1,67.1,0,0,0-44.246-58.405,47.394,47.394,0,0,0,13.274-13.274s1.77-2.655,2.655-4.425c0-.885.885-1.77.885-2.655a5.709,5.709,0,0,0-5.31-5.31h-66.37a5.71,5.71,0,0,0-5.31,5.31h0c-.885,3.54,2.655,7.08,2.655,7.08a40.97,40.97,0,0,0,13.274,14.159c-24.778,8.849-44.247,32.742-44.247,61.06v8.849c0,6.194-1.77,9.734-7.079,13.274-.885,0-.885.885-1.77.885l-.885.885h0c-7.08,6.194-11.5,16.813-11.5,28.318,0,23.008,18.583,38.937,41.592,38.937h93.8c23.009,0,41.592-15.929,41.592-38.937A38.979,38.979,0,0,0,2480.74,3534.5Zm-97.342-96.458h46.9c-5.31,7.08-14.158,10.619-23.893,10.619C2397.556,3448.657,2389.592,3444.233,2383.4,3438.038Zm70.794,155.748h-92.917c-16.814,0-30.973-10.619-30.973-27.433a26.373,26.373,0,0,1,10.619-21.239h0c1.77-1.77,3.54-4.425,6.2-6.194,4.424-4.425,6.194-8.849,6.194-11.5v-13.274a54.8,54.8,0,0,1,53.1-54.865h2.655c30.087.885,53.98,24.778,53.98,54.865v13.274a15.03,15.03,0,0,0,5.31,11.5,38.489,38.489,0,0,0,6.195,5.309h0c7.079,5.31,11.5,12.389,11.5,22.124C2486.05,3583.167,2471.006,3593.786,2454.192,3593.786Z" transform="translate(-2319.683 -3426.534)" fill="#ffd600"/>
</svg>
