<svg xmlns="http://www.w3.org/2000/svg" width="177.871" height="176.987" viewBox="0 0 177.871 176.987">
  <path id="Trazado_1630" data-name="Trazado 1630" d="M2122.6,3129.939a40.954,40.954,0,0,0-33.627-40.707l-10.619-.885h-22.123l-2.655-2.654a27.776,27.776,0,0,0-38.937,0l-2.655,2.654h-22.124l-11.5.885c-18.583,3.54-32.742,20.353-32.742,40.707v84.068c0,22.123,18.583,40.707,41.592,40.707h94.688a41.545,41.545,0,0,0,41.592-41.592Zm-100.882-36.282a17.108,17.108,0,0,1,24.778,0l16.814,16.814H2004.9Zm53.98,150.438H1992.51a35.5,35.5,0,0,1-35.4-35.4v-73.449a35.5,35.5,0,0,1,35.4-35.4h8.849l-14.159,12.389h0c-.885,1.769-1.77,2.655-1.77,4.425,0,2.654,2.655,5.31,6.194,5.31h84.954a5.71,5.71,0,0,0,5.31-5.31,4.866,4.866,0,0,0-2.655-4.425h0l-12.388-12.389h7.964a35.5,35.5,0,0,1,35.4,35.4V3208.7C2111.976,3228.167,2096.048,3244.1,2075.694,3244.1Z" transform="translate(-1945.609 -3077.729)" fill="#ffd600"/>
</svg>
