<svg xmlns="http://www.w3.org/2000/svg" width="177.428" height="161.942" viewBox="0 0 177.428 161.942">
  <path id="Trazado_1632" data-name="Trazado 1632" d="M1761.7,3450.542c5.31,0,10.619,2.655,13.274,7.08l31.857,54.866a15.2,15.2,0,0,1,0,15.043l-31.857,55.751c-2.655,4.424-7.964,7.08-13.274,7.08h-61.945c-5.31,0-10.619-2.655-13.275-7.08l-31.857-54.866a15.2,15.2,0,0,1,0-15.043l31.857-55.751c2.655-4.424,7.965-7.08,13.275-7.08H1761.7m0-11.5h-61.945a25,25,0,0,0-22.123,13.274l-31.858,54.866a26.468,26.468,0,0,0,0,25.663l31.858,54.866a26.071,26.071,0,0,0,22.123,13.274h62.83a24.994,24.994,0,0,0,22.123-13.274l31.858-54.866a26.468,26.468,0,0,0,0-25.663l-31.858-54.866a26.406,26.406,0,0,0-23.008-13.274Z" transform="translate(-1642.456 -3439.038)" fill="#ffd600"/>
</svg>
