<svg xmlns="http://www.w3.org/2000/svg" width="155.747" height="176.986" viewBox="0 0 155.747 176.986">
  <g id="Grupo_704" data-name="Grupo 704" transform="translate(-907.369 -332.235)">
    <g id="Grupo_701" data-name="Grupo 701" transform="translate(907.369 332.235)">
      <path id="Trazado_1629" data-name="Trazado 1629" d="M2389.007,3250.677h-74.334c-22.123,0-40.707-18.583-40.707-40.707V3114.4c0-22.123,18.583-40.707,40.707-40.707h74.334c22.123,0,40.706,18.583,40.706,40.707v94.688C2429.713,3232.094,2411.13,3250.677,2389.007,3250.677Zm-74.334-166.367c-15.929,0-30.088,13.274-30.088,30.087v94.688a29.84,29.84,0,0,0,30.088,30.088h74.334a29.84,29.84,0,0,0,30.087-30.088V3114.4a29.839,29.839,0,0,0-30.087-30.087Z" transform="translate(-2273.966 -3073.691)" fill="#ffd600"/>
    </g>
    <g id="Grupo_702" data-name="Grupo 702" transform="translate(1013.635 407.53)">
      <circle id="Elipse_144" data-name="Elipse 144" cx="11.504" cy="11.504" r="11.504" transform="matrix(0.16, -0.987, 0.987, 0.16, 0, 22.711)" fill="#ffd600"/>
    </g>
  </g>
</svg>
