<svg xmlns="http://www.w3.org/2000/svg" width="155.748" height="177.871" viewBox="0 0 155.748 177.871">
  <path id="Trazado_1625" data-name="Trazado 1625" d="M1838.385,2851.875v-53.981c0-22.123-18.583-40.707-40.707-40.707h-74.334c-22.123,0-40.707,18.583-40.707,40.707v60.175h0v36.282c0,22.123,18.583,40.707,40.707,40.707h73.449c22.123,0,40.707-18.584,40.707-40.707l.885-42.476Zm-99.112-83.184v50.441a6.049,6.049,0,0,1-6.195,6.194c-3.54,0-5.31-3.539-5.31-6.194v-50.441Zm88.493,126.545a29.839,29.839,0,0,1-30.087,30.087h-74.334a29.839,29.839,0,0,1-30.088-30.087v-43.362h0v-53.981a29.435,29.435,0,0,1,23.893-29.2v50.441a16.8,16.8,0,0,0,16.814,16.813c9.734,0,16.813-7.08,16.813-16.813v-50.441h46.9a29.839,29.839,0,0,1,30.087,30.088v60.175h0Z" transform="translate(-1682.638 -2757.187)" fill="#ffd600"/>
</svg>
