<svg id="Grupo_703" data-name="Grupo 703" xmlns="http://www.w3.org/2000/svg" width="177.114" height="121.767" viewBox="0 0 177.114 121.767">
  <path id="Trazado_1633" data-name="Trazado 1633" d="M2120.415,3846.846H1982.043a19.394,19.394,0,0,0-19.371,19.372v83.023a19.394,19.394,0,0,0,19.371,19.372h138.372a19.394,19.394,0,0,0,19.371-19.372v-83.023A19.394,19.394,0,0,0,2120.415,3846.846Zm-138.372,11.07h138.372a8.312,8.312,0,0,1,8.3,8.3v11.07H1973.742v-11.07A8.312,8.312,0,0,1,1982.043,3857.916Zm138.372,99.627H1982.043a8.312,8.312,0,0,1-8.3-8.3v-60.883h154.975v60.883A8.312,8.312,0,0,1,2120.415,3957.543Z" transform="translate(-1962.672 -3846.846)" fill="#ffd600"/>
  <path id="Trazado_1634" data-name="Trazado 1634" d="M2014.474,3977.5h-5.535a5.535,5.535,0,0,1-5.534-5.534v-5.535a5.535,5.535,0,0,1,5.534-5.535h5.535a5.535,5.535,0,0,1,5.534,5.535v5.535A5.534,5.534,0,0,1,2014.474,3977.5Z" transform="translate(-1975.73 -3883.408)" fill="#ffd600"/>
</svg>
