<svg xmlns="http://www.w3.org/2000/svg" width="177.871" height="176.986" viewBox="0 0 177.871 176.986">
  <path id="Trazado_1624" data-name="Trazado 1624" d="M1818.986,3915.243h0v-83.184a16.8,16.8,0,0,0-16.813-16.813h-7.08c-2.655-18.583-19.469-32.743-39.822-32.743h-71.679A41.544,41.544,0,0,0,1642,3824.095v93.8a41.544,41.544,0,0,0,41.592,41.592h94.688a41.543,41.543,0,0,0,41.591-41.592Zm-10.619,0c-1.77,18.583-16.813,32.743-35.4,32.743H1688.9a35.5,35.5,0,0,1-35.4-35.4V3829.4a35.5,35.5,0,0,1,35.4-35.4h61.945a35.5,35.5,0,0,1,35.4,35.4v81.414a5.482,5.482,0,0,0,1.77,3.54,5.584,5.584,0,0,0,7.964,0,12.589,12.589,0,0,0,1.77-3.54V3826.75h6.195a5.71,5.71,0,0,1,5.31,5.31v15.929l-.885,67.255Z" transform="translate(-1642 -3782.503)" fill="#ffd600"/>
</svg>
